# xmcd CD database file
#
# Track frame offsets:
#	150
#	29207
#	56690
#	86188
#	116799
#	147509
#	173351
#	202829
#	227056
#	259100
#	293569
#	317642
#
# Disc length: 4576 seconds
#
# Revision: 0
# Processed by: cddbd v1.5.2PL0 Copyright (c) Steve Scherf et al.
# Submitted via: CDex 2.09
#
DISCID=ad11de0c
DTITLE=Musica Jazz (Magazine) - Dexter Gordon - 1962 two days in August
DYEAR=2018
DGENRE=Jazz
TTITLE0=Soy Califa
TTITLE1=Don't explain
TTITLE2=You stepped out of a dream
TTITLE3=The backbone
TTITLE4=Until the real thing come along
TTITLE5=McSplivens
TTITLE6=Cheese Cake
TTITLE7=I guess I'll hang my tears out to dry
TTITLE8=Second balcony jump
TTITLE9=Love for sale
TTITLE10=Where are you?
TTITLE11=Three o'clock in the morning
EXTD=YEAR: 2018
EXTT0=
EXTT1=
EXTT2=
EXTT3=
EXTT4=
EXTT5=
EXTT6=
EXTT7=
EXTT8=
EXTT9=
EXTT10=
EXTT11=
PLAYORDER=
